<svg width="33" height="33" viewBox="0 0 33 33" fill="none" xmlns="http://www.w3.org/2000/svg">
<path d="M20.558 28.6446L9.35427 17.415C9.22129 17.2813 9.12745 17.1366 9.07275 16.9809C9.01716 16.8252 8.9896 16.6585 8.99007 16.4807C8.99054 16.3029 9.01898 16.1363 9.07539 15.9809C9.13092 15.8255 9.22552 15.6813 9.3592 15.5483L20.6222 4.34471C20.9341 4.03442 21.3234 3.8799 21.7901 3.88113C22.2567 3.88236 22.6563 4.05008 22.9887 4.3843C23.3212 4.71851 23.4868 5.10784 23.4857 5.55228C23.4845 5.99672 23.3168 6.38517 22.9826 6.71762L13.1567 16.4917L22.9308 26.3176C23.2411 26.6295 23.3956 27.013 23.3944 27.4681C23.3932 27.9241 23.2255 28.3183 22.8913 28.6508C22.5571 28.9832 22.1678 29.1489 21.7233 29.1477C21.2789 29.1465 20.8904 28.9788 20.558 28.6446Z" fill="#121212"/>
</svg>
