<svg width="32" height="33" viewBox="0 0 32 33" fill="none" xmlns="http://www.w3.org/2000/svg">
<path d="M11.4822 4.34937L22.6712 15.5936C22.804 15.7275 22.8977 15.8723 22.9522 16.0281C23.0076 16.1838 23.0349 16.3506 23.0342 16.5284C23.0335 16.7062 23.0049 16.8727 22.9483 17.0281C22.8925 17.1834 22.7977 17.3275 22.6639 17.4603L11.3863 28.6492C11.074 28.9591 10.6845 29.1131 10.2178 29.1112C9.75115 29.1094 9.35181 28.9412 9.01979 28.6065C8.68778 28.2719 8.52264 27.8823 8.5244 27.4379C8.52615 26.9934 8.69435 26.6052 9.029 26.2732L18.8676 16.5119L9.10634 6.67335C8.79645 6.36102 8.64241 5.97729 8.64421 5.52219C8.64601 5.06619 8.81423 4.67218 9.14888 4.34017C9.48352 4.00815 9.87306 3.84302 10.3175 3.84478C10.7619 3.84653 11.1502 4.01473 11.4822 4.34937Z" fill="#121212"/>
</svg>
