<svg width="78" height="28" fill="none" xmlns="http://www.w3.org/2000/svg"><path d="M11.438 12.269V9.673h8.917c.091.458.145 1 .145 1.59 0 1.947-.546 4.356-2.307 6.072C16.48 19.073 14.293 20 11.392 20 6.018 20 1.5 15.737 1.5 10.5S6.018 1 11.392 1c2.972 0 5.088 1.135 6.682 2.618l-1.878 1.83c-1.14-1.043-2.686-1.854-4.804-1.854-3.923 0-6.99 3.081-6.99 6.906 0 3.825 3.067 6.906 6.99 6.906 2.545 0 3.994-.996 4.923-1.9.756-.738 1.254-1.793 1.447-3.237h-6.324Z" fill="#4285F4"/><path d="M34 14c0 3.456-2.694 6-6 6s-6-2.546-6-6c0-3.477 2.694-6 6-6s6 2.523 6 6Zm-2.627 0c0-2.16-1.562-3.637-3.373-3.637-1.811 0-3.373 1.478-3.373 3.637 0 2.136 1.562 3.637 3.373 3.637 1.811.001 3.373-1.5 3.373-3.637Z" fill="#EA4335"/><path d="M47 14c0 3.456-2.694 6-6 6s-6-2.546-6-6c0-3.477 2.694-6 6-6s6 2.523 6 6Zm-2.627 0c0-2.16-1.562-3.637-3.373-3.637-1.811 0-3.373 1.478-3.373 3.637 0 2.136 1.562 3.637 3.373 3.637 1.811.001 3.373-1.5 3.373-3.637Z" fill="#FBBC05"/><path d="M60 8.375V19.53c0 4.588-2.727 6.47-5.953 6.47-3.034 0-4.861-2.024-5.549-3.67l2.396-.99c.426 1.012 1.471 2.212 3.153 2.212 2.064 0 3.344-1.27 3.344-3.647v-.893h-.094c-.617.753-1.803 1.411-3.296 1.411-3.131 0-6.001-2.705-6.001-6.188C48 10.73 50.87 8 54 8c1.494 0 2.68.658 3.297 1.388h.094V8.373H60v.002Zm-2.42 5.861c0-2.189-1.47-3.788-3.344-3.788-1.897 0-3.487 1.6-3.487 3.788 0 2.166 1.59 3.74 3.487 3.74 1.875.003 3.344-1.574 3.344-3.74Z" fill="#4285F4"/><path d="M64 2v18h-3V2h3Z" fill="#34A853"/><path d="m73.854 15.976 2.033 1.364c-.655.977-2.236 2.66-4.969 2.66C67.53 20 65 17.363 65 14c0-3.57 2.552-6 5.624-6 3.095 0 4.607 2.477 5.104 3.818L76 12.5l-7.974 3.318c.61 1.204 1.558 1.819 2.89 1.819 1.334 0 2.26-.661 2.938-1.66Zm-6.257-2.159 5.331-2.227c-.293-.749-1.175-1.273-2.213-1.273-1.334 0-3.185 1.181-3.118 3.5Z" fill="#EA4335"/></svg>