<svg width="16" height="20" fill="none" xmlns="http://www.w3.org/2000/svg"><path d="M2.3 19.5c-.5 0-.925-.175-1.275-.525A1.736 1.736 0 0 1 .5 17.7V6.3c0-.5.175-.925.525-1.275.35-.35.775-.525 1.275-.525h1.95v-.25c0-1.033.367-1.917 1.1-2.65C6.083.867 6.967.5 8 .5s1.917.367 2.65 1.1a3.613 3.613 0 0 1 1.1 2.65v.25h1.95c.5 0 .925.175 1.275.525.35.35.525.775.525 1.275v11.4c0 .5-.175.925-.525 1.275-.35.35-.775.525-1.275.525H2.3Zm0-1.5h11.4c.067 0 .133-.033.2-.1s.1-.133.1-.2V6.3c0-.067-.033-.133-.1-.2s-.133-.1-.2-.1h-1.95v2.25A.728.728 0 0 1 11 9a.726.726 0 0 1-.75-.75V6h-4.5v2.25A.728.728 0 0 1 5 9a.726.726 0 0 1-.75-.75V6H2.3c-.067 0-.133.033-.2.1s-.1.133-.1.2v11.4c0 .067.033.133.1.2s.133.1.2.1ZM5.75 4.5h4.5v-.25c0-.633-.217-1.167-.65-1.6C9.167 2.217 8.633 2 8 2c-.633 0-1.167.217-1.6.65-.433.433-.65.967-.65 1.6v.25ZM2 18V6v12Z" fill="#121212"/></svg>