<svg width="24" height="24" fill="none" xmlns="http://www.w3.org/2000/svg"><path fill-rule="evenodd" clip-rule="evenodd" d="M5.787 14.02a.747.747 0 0 0 .132.031 484.201 484.201 0 0 1 .845 2.002c.502 1.202 1.009 2.44 1.12 2.796.139.438.285.736.445.94.083.104.178.196.29.266a.88.88 0 0 0 .178.085l.008.003c.32.12.612.07.795.009a1.313 1.313 0 0 0 .305-.15L9.909 20l2.826-1.762L16 20.739c.048.037.1.068.156.093.393.17.772.23 1.13.182.356-.05.64-.199.85-.368a1.994 1.994 0 0 0 .564-.728l.01-.022.003-.008.001-.004v-.002l.002-.001a.748.748 0 0 0 .039-.133l2.98-15.025a.752.752 0 0 0 .014-.146c0-.44-.165-.859-.555-1.112-.333-.217-.705-.227-.94-.209-.252.02-.486.082-.643.132a3.451 3.451 0 0 0-.26.094l-.01.005-16.714 6.556-.003.001a2.266 2.266 0 0 0-.167.069 2.521 2.521 0 0 0-.38.212c-.226.155-.749.581-.66 1.285.07.56.454.905.688 1.071.128.091.25.156.34.199.04.02.127.054.164.07l.01.003 3.168 1.067Zm14.138-9.152h-.002a.78.78 0 0 1-.025.011L3.164 11.444a.818.818 0 0 1-.027.01l-.01.003a1.136 1.136 0 0 0-.09.04.851.851 0 0 0 .086.043l3.142 1.058a.75.75 0 0 1 .16.076l10.377-6.075.01-.005a2.012 2.012 0 0 1 .124-.068 2.05 2.05 0 0 1 .317-.131c.09-.028.357-.107.645-.014a.854.854 0 0 1 .588.689c.041.15.035.297.003.424-.069.275-.262.489-.437.653-.15.14-2.096 2.016-4.015 3.868l-2.613 2.52-.465.45 5.872 4.502a.536.536 0 0 0 .252.04.229.229 0 0 0 .116-.052.495.495 0 0 0 .104-.12v-.001l2.891-14.573a1.858 1.858 0 0 0-.267.086h-.002Zm-8.461 12.394-1.172-.898-.284 1.805 1.456-.907Zm-2.246-2.68 1.165-1.125 2.612-2.522.973-.938-6.52 3.817.035.082a340.295 340.295 0 0 1 1.22 2.92l.283-1.8a.747.747 0 0 1 .232-.435Z" fill="#121212"/></svg>